<?xml version="1.0" standalone="no"?>
<!DOCTYPE svg PUBLIC "-//W3C//DTD SVG 20010904//EN"
 "http://www.w3.org/TR/2001/REC-SVG-20010904/DTD/svg10.dtd">
<!-- ratio of: 1.83094767 -->
<svg id="pulse" version="1.0" xmlns="http://www.w3.org/2000/svg" viewBox="0 0 1146 546" preserveAspectRatio="xMinYMax meet">
<g fill="#26ff0e" stroke="none" transform="translate(0.000000,546.000000) scale(0.100000,-0.100000)">
<!-- transform="translate(0.000000,546.000000) scale(0.100000,-0.100000)" -->
<path d="M5785 4363 c-22 -31 -55 -70 -73 -87 -19 -17 -54 -59 -79 -93 -24
-35 -55 -71 -68 -82 -13 -10 -48 -47 -77 -82 -29 -35 -58 -68 -65 -72 -17 -11
-16 -24 1 -30 8 -3 31 7 52 23 60 43 84 28 154 -103 23 -42 50 -83 59 -90 35
-24 38 -49 34 -262 -2 -115 -6 -322 -8 -460 -3 -172 -9 -273 -20 -325 -17 -83
-27 -303 -14 -294 5 3 6 -2 3 -10 -3 -9 -10 -16 -14 -16 -6 0 -7 -17 -1 -54 0
-4 9 -5 19 -1 15 7 53 7 107 2 11 -1 25 -7 30 -14 12 -14 138 -86 131 -74 -3
4 6 6 20 3 15 -3 23 -10 20 -17 -2 -7 20 -30 51 -51 74 -53 109 -82 103 -86
-3 -2 -48 -36 -100 -75 -52 -39 -107 -84 -122 -100 -39 -41 -100 -162 -148
-293 -37 -99 -43 -126 -44 -200 -1 -74 2 -89 23 -118 13 -18 30 -32 38 -30 9
2 32 43 54 97 97 238 221 372 439 477 63 31 133 62 155 69 56 19 312 63 418
71 53 4 87 11 87 18 0 6 5 3 11 -6 5 -10 20 -18 32 -18 21 1 22 1 3 15 -22 16
-9 20 32 9 18 -5 20 -9 11 -20 -9 -11 -7 -14 12 -14 33 0 44 10 47 45 2 17 15
57 29 90 14 33 32 78 41 100 9 22 26 50 39 63 15 15 22 30 18 41 -7 24 61 125
125 185 41 38 56 46 83 44 38 -2 57 7 57 28 0 33 80 -3 176 -81 25 -20 39 -26
42 -17 2 7 11 19 19 27 28 29 -5 171 -61 263 -39 64 -60 82 -95 82 -11 0 -22
3 -25 8 -10 16 25 251 49 328 29 92 55 190 55 204 0 20 -48 9 -102 -24 -31
-18 -112 -80 -180 -138 -172 -145 -340 -268 -367 -268 -5 0 -13 9 -16 21 -6
19 0 224 10 324 2 22 7 99 10 170 8 159 9 163 35 140 34 -30 150 -292 154
-344 1 -27 8 -39 29 -51 26 -14 28 -14 50 13 82 105 122 148 151 166 35 22
206 195 288 292 33 38 49 68 54 96 6 38 5 41 -22 46 -29 5 -46 -4 -134 -74
-120 -94 -148 -111 -171 -99 -38 21 -62 95 -63 195 0 50 3 100 8 112 7 18 4
23 -17 28 -25 7 -74 -14 -127 -54 -14 -10 -63 -42 -110 -71 -47 -29 -107 -69
-135 -90 -27 -20 -113 -83 -190 -140 -77 -57 -161 -122 -187 -144 -25 -23 -61
-52 -78 -65 -57 -43 -63 -61 -44 -127 13 -47 15 -82 10 -189 -3 -72 -10 -145
-15 -163 -13 -44 8 -61 52 -41 19 8 62 14 109 13 67 0 82 -4 120 -29 64 -43
98 -76 113 -112 7 -17 23 -41 35 -53 20 -20 21 -21 48 -2 15 10 35 22 45 25 9
4 17 10 17 15 0 10 84 72 99 72 16 0 6 -108 -13 -129 -20 -22 -106 -214 -106
-236 0 -10 -10 -15 -27 -15 -57 0 -260 -49 -288 -70 -5 -4 -28 -13 -50 -20
-22 -7 -87 -37 -145 -68 -58 -30 -126 -66 -151 -78 -26 -13 -54 -30 -63 -40
-9 -9 -19 -14 -22 -11 -3 2 1 11 9 18 7 8 22 28 33 44 10 17 38 54 61 83 24
29 43 59 43 67 0 7 4 15 8 17 5 2 37 45 72 97 l64 94 -21 36 c-11 20 -27 37
-35 39 -15 3 -89 -63 -146 -130 l-31 -38 -102 62 -102 61 8 166 c17 403 23
520 28 528 3 5 9 134 12 287 6 296 7 306 60 355 14 13 25 28 25 33 0 11 -27
38 -159 158 -94 84 -105 101 -159 233 -7 15 -23 32 -38 37 -50 19 -67 12 -109
-47z m1782 -729 c-3 -3 -12 -4 -19 -1 -8 3 -5 6 6 6 11 1 17 -2 13 -5z m23
-44 c0 -5 -4 -10 -10 -10 -5 0 -10 5 -10 10 0 6 5 10 10 10 6 0 10 -4 10 -10z
m-60 -270 c0 -5 -5 -10 -11 -10 -5 0 -7 5 -4 10 3 6 8 10 11 10 2 0 4 -4 4
-10z m-900 -30 c0 -5 -5 -10 -11 -10 -5 0 -7 5 -4 10 3 6 8 10 11 10 2 0 4 -4
4 -10z m600 -40 c0 -5 -5 -10 -11 -10 -5 0 -7 5 -4 10 3 6 8 10 11 10 2 0 4
-4 4 -10z m40 -165 c-7 -8 -19 -15 -28 -15 -11 0 -9 5 8 20 26 22 40 19 20 -5z
m-310 -286 c0 -6 -4 -7 -10 -4 -5 3 -10 11 -10 16 0 6 5 7 10 4 6 -3 10 -11
10 -16z m580 -183 c0 -9 -40 -13 -46 -5 -3 5 6 9 20 9 14 0 26 -2 26 -4z
m-440 -36 c0 -5 -4 -10 -10 -10 -5 0 -10 5 -10 10 0 6 5 10 10 10 6 0 10 -4
10 -10z m-32 -47 c-16 -39 -32 -54 -18 -19 12 33 19 46 25 46 3 0 -1 -12 -7
-27z m-48 -108 c0 -8 -7 -15 -16 -15 -14 0 -14 3 -4 15 7 8 14 15 16 15 2 0 4
-7 4 -15z m-75 -5 c3 -5 1 -10 -4 -10 -6 0 -11 5 -11 10 0 6 2 10 4 10 3 0 8
-4 11 -10z m-603 -32 c-7 -7 -12 -8 -12 -2 0 14 12 26 19 19 2 -3 -1 -11 -7
-17z m-265 -10 c-3 -8 -6 -5 -6 6 -1 11 2 17 5 13 3 -3 4 -12 1 -19z m708 7
c-62 -17 -69 -17 -30 0 17 8 41 14 55 14 15 0 5 -6 -25 -14z m-95 -30 c0 -2
-10 -9 -22 -15 -22 -11 -22 -10 -4 4 21 17 26 19 26 11z m-55 -35 c-3 -5 -14
-10 -23 -9 -14 0 -13 2 3 9 27 11 27 11 20 0z"/>
<path d="M8341 4284 c-20 -26 -111 -131 -127 -148 -5 -6 -13 -19 -17 -29 -3
-9 -17 -21 -30 -26 -13 -5 -36 -26 -52 -48 -16 -21 -72 -83 -124 -138 -51 -55
-110 -125 -130 -155 -20 -30 -49 -66 -66 -80 -48 -41 -94 -93 -89 -102 3 -5
10 -5 16 -2 7 5 9 1 5 -9 -4 -10 0 -17 10 -19 9 -2 17 -12 18 -23 1 -11 8 -68
15 -127 11 -87 11 -129 1 -225 -19 -180 -30 -261 -46 -323 -5 -21 -1 -27 25
-39 24 -10 38 -11 55 -3 19 9 28 7 48 -9 28 -21 42 -25 31 -7 -4 7 -3 8 5 4 6
-4 9 -11 6 -16 -8 -12 94 -101 153 -133 33 -18 59 -26 72 -22 20 6 60 82 74
137 3 15 19 42 35 60 28 33 131 226 131 247 0 6 5 11 10 11 12 0 24 27 75 165
43 116 50 133 100 236 37 77 42 108 16 117 -8 3 -11 0 -8 -5 3 -5 0 -31 -7
-58 -8 -33 -15 -45 -20 -36 -5 7 -3 18 3 24 14 14 15 67 1 67 -5 0 -27 -38
-49 -84 -21 -46 -46 -86 -55 -89 -18 -7 -46 -50 -105 -162 -52 -99 -103 -174
-117 -175 -13 0 -40 30 -84 92 l-32 46 58 70 c62 73 110 141 258 367 84 129
93 140 121 140 29 0 30 2 28 40 -4 61 -11 83 -31 90 -33 10 -102 255 -102 361
0 41 -1 43 -30 42 -20 -1 -38 -10 -49 -24z m96 -276 c-3 -8 -6 -5 -6 6 -1 11
2 17 5 13 3 -3 4 -12 1 -19z m-237 -228 c0 -6 4 -9 8 -6 5 3 9 -1 9 -8 0 -20
42 -116 65 -149 20 -28 20 -28 0 -50 -11 -12 -38 -51 -59 -87 -64 -110 -118
-190 -127 -190 -4 0 -5 8 -1 18 4 9 11 51 16 92 4 41 13 109 18 150 6 41 11
125 11 186 0 61 3 114 7 117 7 8 53 -56 53 -73z m-400 -171 c-7 -11 -14 -18
-17 -15 -3 3 0 12 7 21 18 21 23 19 10 -6z m453 -149 c-3 -11 -9 -20 -15 -20
-5 0 -4 9 2 20 6 11 12 20 14 20 2 0 2 -9 -1 -20z m188 -213 c-10 -9 -11 -8
-5 6 3 10 9 15 12 12 3 -3 0 -11 -7 -18z"/>
<path d="M3204 3950 c-17 -11 -51 -48 -75 -83 -39 -57 -218 -269 -290 -344
-17 -18 -28 -37 -24 -42 8 -14 46 -14 82 0 25 9 30 7 51 -18 39 -47 111 -156
128 -193 24 -55 27 -83 28 -292 l1 -198 -30 -12 c-16 -7 -48 -29 -70 -51 -22
-21 -55 -53 -73 -70 -68 -66 -76 -88 -75 -217 1 -86 5 -125 17 -148 9 -17 16
-41 16 -52 0 -33 19 -60 42 -60 18 0 20 4 14 33 -17 78 -18 133 -4 167 18 42
87 93 120 88 21 -3 24 -9 31 -88 5 -47 9 -164 8 -260 0 -96 4 -189 9 -205 7
-20 7 -48 0 -80 -6 -28 -14 -80 -19 -118 -6 -49 -18 -83 -45 -129 -26 -43 -34
-64 -26 -72 17 -17 95 10 183 64 45 28 86 50 92 50 27 0 88 61 140 140 31 47
81 110 111 140 61 63 68 87 27 92 -23 2 -34 14 -61 68 -42 85 -57 171 -43 242
16 76 22 83 54 66 27 -13 77 -74 77 -91 0 -6 12 -34 27 -64 24 -46 31 -53 53
-51 15 2 26 10 29 23 2 11 14 33 26 50 13 16 30 46 38 65 26 62 232 250 274
250 23 0 24 21 2 78 -22 55 -23 69 -24 357 l0 300 -36 55 c-57 89 -118 245
-129 332 -5 43 -7 84 -4 92 4 10 -3 17 -20 22 -36 9 -82 -23 -193 -133 -50
-49 -118 -110 -153 -136 -58 -44 -64 -46 -80 -32 -10 9 -30 44 -45 78 -15 34
-35 81 -46 104 -10 24 -24 90 -30 155 -8 70 -18 120 -27 131 -19 21 -20 21
-58 -3z m333 -576 c-3 -3 -12 -4 -19 -1 -8 3 -5 6 6 6 11 1 17 -2 13 -5z m54
-96 c12 -24 32 -58 46 -75 22 -31 23 -36 11 -75 -8 -27 -12 -105 -12 -210 1
-93 -2 -168 -4 -168 -3 0 -45 19 -94 43 -83 40 -101 59 -79 83 14 14 31 189
31 312 0 103 1 110 23 120 41 20 56 14 78 -30z m-180 -301 c-13 -13 -15 24 -3
63 6 22 7 21 10 -14 2 -21 -1 -43 -7 -49z"/>
<path d="M5103 3757 c-43 -33 -371 -367 -387 -394 -9 -16 3 -33 25 -37 8 -1
43 -16 79 -34 63 -32 101 -58 162 -115 l30 -27 6 -220 c3 -145 1 -262 -8 -343
-14 -134 -17 -139 -89 -171 -47 -22 -44 -24 -178 96 l-92 83 1 60 c1 33 1 137
1 230 0 282 2 329 15 352 19 34 15 48 -21 69 -87 51 -98 59 -93 77 3 11 -5 23
-22 34 -44 27 -72 55 -72 73 0 8 -9 23 -20 32 -24 21 -53 118 -45 151 14 53
-35 43 -84 -16 -18 -23 -57 -69 -87 -102 -68 -76 -147 -175 -143 -179 38 -25
63 -36 84 -36 29 0 117 -76 141 -122 9 -18 14 -60 14 -126 0 -55 4 -122 10
-151 6 -34 6 -69 -1 -103 -5 -29 -12 -71 -15 -93 -3 -22 -8 -67 -12 -99 l-7
-59 -62 -18 c-67 -19 -123 -52 -123 -74 0 -7 -10 -15 -22 -19 -14 -3 -43 -35
-72 -77 -41 -60 -50 -82 -57 -138 -5 -36 -12 -81 -15 -98 -12 -65 15 -133 53
-133 13 0 15 10 9 68 l-7 67 86 70 c100 82 170 125 204 125 48 0 228 -121 298
-200 17 -20 56 -57 86 -83 l55 -47 23 24 c13 13 35 26 49 29 28 7 58 27 147
94 34 27 85 65 113 86 l51 37 18 -43 c26 -59 153 -189 178 -181 27 10 42 32
35 56 -3 14 -1 19 6 14 15 -9 76 48 142 134 30 40 79 100 108 133 61 72 68
107 23 107 -22 0 -37 -9 -57 -35 -29 -39 -39 -42 -60 -21 -7 8 -26 24 -41 35
-18 15 -29 36 -35 69 -5 26 -11 205 -13 398 l-5 352 -81 78 c-110 107 -159
210 -159 333 0 58 -18 66 -67 28z"/>
</g>
</svg>
